<mxfile host="app.diagrams.net" modified="2023-09-28T08:14:06.283Z" agent="Mozilla/5.0 (Windows NT 10.0; Win64; x64) AppleWebKit/537.36 (KHTML, like Gecko) Chrome/117.0.0.0 Safari/537.36" version="21.8.2" etag="F7gpZ6EDoSys3_27Dj0H" type="github">
  <diagram name="PÃ¡gina-1" id="rJzOL40fQpr5piDdoOpo">
    <mxGraphModel>
      <root>
        <mxCell id="0" />
        <mxCell id="1" parent="0" />
      </root>
    </mxGraphModel>
  </diagram>
</mxfile>
